# xmcd
#
# Track frame offsets:
#       150
#       7843
#       18583
#       31022
#       42158
#       46436
#       59478
#       69667
#       82269
#       94358
#       109477
#       117971
#       133052
#       152332
#       167322
#       174111
#       188166
#       203972
#       212803
#       224023
#       240262
#       253070
#       279704
#       294980
#       312704
#       328997
#       336906
#
# Disc length: 4702 seconds
#
# Revision: 1
# Processed by: cddbd v1.5.2PL0 Copyright (c) Steve Scherf et al.
# Submitted via: audiograbber 1.83.01
#
DISCID=95125c1b
DTITLE=007 / Best Of Bond 2
DYEAR=2015
DGENRE=Soundtrack
TTITLE0=The Monty Nnorman Orchestra / Dr. No's Fantasy
TTITLE1=Dana Coupland / Under The Mango Tree
TTITLE2=The John Barry Orchestra / 007
TTITLE3=The John Barry Orchestra / Opening Titles Medley
TTITLE4=The John Barry Orchestra / Into Miami
TTITLE5=The John Barry Orchestra / The Laser Beam
TTITLE6=Shirley Bassey / Mr. Kiss Kiss Bang Bang
TTITLE7=The John Barry Orchestra / Switching The Body
TTITLE8=The John Barry Orchestra / Capsule in Space
TTITLE9=Nina / Do You Know How Christmas Trees Are Grown
TTITLE10=The John Barry Orchestra / Bond Smells A Rat
TTITLE11=The George Martin / Filet Of Soul
TTITLE12=The Georg Martin / Under Lair
TTITLE13=The John Barry Orchestra / Hip's Trip
TTITLE14=Marvin Hamlisch / The Pyramids
TTITLE15=The John Barry Orchestra / Cable Car And Snake Fight
TTITLE16=Bill Conti / Make It Last All Night
TTITLE17=The John Barry Orchestra / The Chase Bomb Theme
TTITLE18=The John Barry Orchestra / Snow Job
TTITLE19=The Pretenders / Where Has Everybody Gone
TTITLE20=The Pretenders / If There Was A Man
TTITLE21=Eric Serra / The Experience Of Love
TTITLE22=Moby / James Bond Theme Moby's Re-Version
TTITLE23=K.D. Lang / Surrender
TTITLE24=Scott Walker / Only Myself To Blame
TTITLE25=David Arnold / Vesper
TTITLE26=David Arnold / Time To Get Out
EXTD=
EXTT0=
EXTT1=
EXTT2=
EXTT3=
EXTT4=
EXTT5=
EXTT6=
EXTT7=
EXTT8=
EXTT9=
EXTT10=
EXTT11=
EXTT12=
EXTT13=
EXTT14=
EXTT15=
EXTT16=
EXTT17=
EXTT18=
EXTT19=
EXTT20=
EXTT21=
EXTT22=
EXTT23=
EXTT24=
EXTT25=
EXTT26=
PLAYORDER=
.
